Patient4_TMGait_0pt5_01_left_38_EMG.mot
version=1
nRows=33
nColumns=33
inDegrees=no
endheader
time	1LAddLong	2LGlutMax	3LGlutMed	4LIliopsoas	5LSemiMemb	6LBicFemLong	7LRecFem	8LVastMed	9LVastLat	10LGasMed	11LTibAnt	12lTibPost	13LPeroneusLong	14LSol	15LExtDigLong	16LFlexDigLong	17RAddLong	18RGlutMax	19RGlutMed	20RIliopsoas	21RSemiMemb	22RBicFemLong	23RRecFem	24RVastMed	25RVastLat	26RGasMed	27RTibAnt	28RTibPost	29RPeroneusLong	30RSol	31RExtDigLong	32RFlexDigLong
52.015	0.00885	0.090485	-0.070496	0.008392	0.025482	0.014648	-0.032349	-0.007935	0.072021	-0.045624	0.014343	0.011902	0.019531	-0.11643	-0.014648	-0.007019	-0.002747	-0.019989	0.25833	0.087891	-0.075073	0.050049	0.031281	0.039368	0.06485	-0.069427	-0.13611	-0.010681	-0.21698	-0.27969	-0.007324	-0.024719
52.016	0.010529	0.075684	-0.091553	0.003815	-0.001068	0.039825	-0.032196	0.001221	0.063934	0.007629	0.01358	0.012207	0.11078	-0.16373	-0.004272	-0.000763	-0.007782	0.032959	-0.15335	0.097656	-0.001373	0.038147	0.053864	0.040894	0.052338	-0.054016	-0.03067	-0.013885	-0.002899	0.10757	-0.007019	-0.015717
52.017	0.002594	0.057831	-0.076141	0.006561	-0.018921	0.053558	-0.039825	-0.00351	0.062103	0.037231	0.014801	0.011444	0.054626	-0.1619	-0.016937	0.000305	-0.000305	0.066986	-0.44403	0.066223	0.076141	0.019836	0.042419	0.005951	0.040894	-0.035095	0.068512	0.014801	0.040283	0.28519	-0.007935	-0.011444
52.018	-0.002136	0.05249	-0.05188	0.015411	-0.004883	0.053406	-0.019836	-0.010986	0.064392	0.056915	0.01358	0.0177	0.056305	-0.10498	-0.014954	0.000458	0.001068	0.063171	-0.23666	0.027771	0.064545	0.04303	0.065155	-0.024414	0.006104	0.036469	-0.11078	0.017242	-0.058594	0.56808	-0.009918	-0.007935
52.019	0.00824	0.05722	-0.028381	-0.003815	0.03067	0.008087	-0.033875	0.000763	0.073242	0.055847	0.0177	0.029755	0.068512	-0.01236	-0.006409	-0.003052	-0.001831	0.085297	0.52628	0.006561	0.035553	0.075073	0.049896	0.015564	0.042419	0.086365	-0.54733	-0.059357	-0.11108	1.2175	-0.008698	-0.005798
52.02	0.008698	0.039673	-0.042267	0.00412	0.034485	0.005035	-0.033722	-0.013123	0.063324	0.009155	0.016937	0.000153	0.077515	-0.002136	-0.005646	0.013428	0.009918	0.06546	0.2681	0.009918	0.011139	0.06897	-0.027466	0.015106	0.065002	0.040283	-0.54947	-0.25879	-0.043488	0.55359	-0.015411	0.006866
52.021	0.00824	0.054474	-0.058136	0.007172	0.003815	-0.015411	-0.051117	-0.006104	0.055695	-0.007782	0.011749	0.00351	0.091858	-0.06958	-0.001221	0.007935	0.004883	0.10208	-0.024567	-0.022583	-0.037842	0.10925	0.008392	0.008087	0.050354	-0.017395	-0.10407	-0.16312	-0.25665	-0.074615	-0.012512	0.001984
52.022	-0.009003	0.039825	-0.014954	0.011749	0.020142	0.023193	-0.048981	-0.004272	0.048828	-0.018616	0.015106	0.009613	0.0177	-0.050354	0.000153	-0.005493	0.009766	0.024414	-0.44098	-0.009766	-0.040436	0.1532	0.046539	-0.030212	-0.008392	-0.016174	-0.083923	-0.25467	-0.38055	0.4335	-0.011597	-0.003662
52.023	-0.001984	0.030975	0.007782	0.022736	0.010834	0.018921	-0.054779	-0.006104	0.041351	-0.04425	0.011749	0.007935	-0.028992	-0.057831	-0.005798	0.002136	0.013275	0.056915	-0.1178	-0.020905	-0.016327	0.13367	0.043793	-0.095673	-0.041351	-0.007324	-0.077362	0.30991	-0.30045	0.6076	-0.013275	-0.002289
52.024	0.000153	0.023346	0.067444	0.01709	-0.009308	0.016479	-0.043793	-0.005646	0.031891	-0.070648	0.013885	0.009613	-0.002441	-0.072632	-0.01297	-0.012665	0.016632	0.060272	0.10483	-0.049133	0.022583	0.09964	0.17517	-0.11032	-0.085754	0.048523	0.01358	0.33981	-0.26428	0.31067	-0.007477	-0.002899
52.025	0.003662	0.001831	0.079041	-0.005035	-0.010529	-0.005188	-0.055847	-0.003662	0.027008	-0.060883	0.013428	0.014954	0.027313	-0.038147	-0.014648	-0.00351	0.033722	-0.027313	-0.17319	-0.086365	0.037384	0.072327	0.14313	-0.13336	-0.065918	-0.001831	0.055847	0.21668	-0.13687	0.012665	-0.006714	-0.008087
52.026	-0.000458	0.010071	0.035706	-0.016022	0.006409	0.003815	-0.046387	0.002289	0.02655	-0.055389	0.007629	0.01236	0.037689	-0.022583	-0.008392	-0.00946	0.024719	-0.055542	-0.18631	-0.074158	-0.058746	0.08316	0.11719	-0.18082	-0.042877	-0.063324	0.17975	-0.18906	-0.036469	-0.95566	-0.006561	-0.003357
52.027	0.001831	0.025177	-0.037079	-0.01358	0.017853	0.023499	-0.055542	0.001984	0.04425	-0.050354	0.010986	0.005951	0.049438	-0.02655	-0.002747	-0.003967	-0.007935	-0.06073	0.065613	-0.070801	-0.11612	0.13947	0.23819	-0.16235	0.040588	-0.02121	0.15595	-0.074005	0.034332	-0.77026	-0.008545	-0.00824
52.028	-0.000916	0.05249	-0.070343	0.002594	0.033875	0.019073	-0.049744	-0.010223	0.043945	-0.081177	0.036469	0.000153	0.072327	-0.084381	-0.001678	-0.000305	0	-0.04364	0.031433	0.009766	-0.13718	0.15243	0.44067	-0.1709	-0.038757	-0.018311	0.58853	0.10376	0.027924	0.38727	-0.00412	-0.001221
52.029	-0.001068	0.040588	-0.13733	0.005951	0.036621	0.008545	-0.053101	0.004425	0.029602	-0.061493	-0.007019	0.009155	0.039978	-0.121	-0.004425	0.000305	0.013123	-0.031738	-0.2507	0.093994	0.072632	0.046692	0.50568	-0.13534	-0.097504	-0.013733	0.78247	0.086823	0.13641	1.1092	-0.007935	0.003052
52.03	0.000763	0.023193	-0.16434	0.012817	0.011749	-0.002136	-0.068054	-0.006256	0.029449	-0.047302	0.033569	0.008392	0.025635	-0.045776	0.003357	-0.017548	0.002289	-0.044708	0.092926	0.112	0.11566	0.03952	0.47455	-0.18723	-0.14038	0.013733	0.70038	0.011902	0.495	0.29251	0	0.001678
52.031	0.005951	0.028992	-0.089569	0.003052	-0.000153	0.016632	-0.068512	-0.005341	0.045471	-0.022278	0.000916	0.007019	0.035858	-0.045013	0.003357	0.001068	-0.006866	-0.06546	-0.10895	0.16861	0.046082	0.052032	0.37827	-0.042725	-0.039978	0.004425	0.30792	-0.12634	0.43976	-0.24704	-0.009308	-0.009308
52.032	0.012665	0.014954	-0.03479	-0.001373	0.00946	0.002136	-0.079498	-0.009155	0.025787	0.008087	-0.001373	0.005646	0.038757	-0.030212	0.002899	-0.003052	-0.013733	-0.095215	-0.29709	0.080872	0.001678	0.10162	0.10223	0.17059	0.03952	-0.014496	-0.17029	-0.10376	-0.01297	-0.34424	-0.007477	-0.013733
52.033	0.019226	0.017242	0.062866	0.018768	0.015106	0.011139	-0.077362	-0.019226	0.033112	-0.001831	0.012817	0.013885	0.024872	-0.038452	0.007324	0.001678	-0.016632	-0.049286	0.44693	-0.008545	-0.030518	0.11429	-0.29037	0.29282	0.24078	-0.018005	-0.57022	0.075531	0.14053	-0.19714	-0.008698	-0.007477
52.034	0.011444	-0.019226	0.049133	0.007477	0.020752	0.023499	-0.068054	-0.007324	0.016174	-0.00061	0.009766	0.015106	0.006104	-0.044556	0.005646	-0.001373	-0.011902	0.021973	0.82581	-0.04425	-0.10056	0.11246	-0.32074	0.2739	0.43549	-0.014038	-0.33966	0.060883	0.23514	0.012665	-0.006256	-0.007782
52.035	0.001831	-0.036774	0.016327	0.011292	0.03006	0.024719	-0.077667	-0.011749	0.013275	-0.016479	0.01709	0.007629	0.033112	-0.068512	0.005646	0.00946	0.002136	-0.080566	0.4628	0.024567	-0.16571	0.068665	-0.20569	0.16556	0.23224	-0.008545	-0.37659	-0.003662	0.22842	-0.2565	-0.009155	-0.002136
52.036	0.007477	-0.024414	-0.024872	0.011902	0.020599	0.038757	-0.08316	-0.008087	0.037231	-0.019836	0.009766	0.00824	0.036926	-0.079651	0.00412	-0.008698	-0.037537	-0.11597	0.16693	0.0354	-0.12207	0.091095	-0.21133	0.17227	0.11627	0.009003	-0.49896	-0.028076	0.15671	-0.58518	-0.007935	-0.012665
52.037	0.002289	-0.021667	-0.06134	0.006409	0.021362	0.045013	-0.088501	0.000153	0.042114	-0.014038	0.007477	0.007782	0.025177	-0.086823	0.006256	0.004578	-0.058441	-0.08255	0.071564	0.00473	0.3125	0.094299	-0.32898	0.16953	-0.13336	0.034332	-0.43915	-0.024414	-0.010986	-0.25436	-0.007324	-0.010681
52.038	-0.000763	0.016632	-0.072784	0.01236	0.006714	0.064545	-0.087585	-0.00351	0.022583	-0.010223	0.006714	0.00885	0.007782	-0.076599	0.001068	-0.002899	-0.024109	-0.071716	0.078125	0.009155	0.25192	0.050812	-0.18433	0.17456	-0.057831	0.033112	-0.32166	-0.02243	-0.08316	0.084686	-0.010376	-0.006409
52.039	-0.000916	-0.005951	-0.043488	0.014801	-0.029144	0.058746	-0.10407	-0.006866	0.03479	-0.044098	0.009308	0.012817	0.013733	-0.062103	0.002441	0.000763	-0.006866	-0.12314	0.10117	0.001373	0.11551	0.046539	-0.12528	0.10605	0.096741	-0.001678	-0.15976	-0.027313	-0.075836	0.35843	-0.005798	-0.003967
52.04	-0.005951	-0.023041	-0.064392	0.00412	-0.06424	0.058594	-0.10239	-0.009003	0.018921	-0.037689	0.012054	0.009003	-0.001068	-0.064545	0.00061	0.000153	0.014343	-0.12863	-0.13763	0.010223	0.085907	0.09079	-0.040741	-0.026398	0.19562	-0.019836	0.007629	-0.023346	-0.022125	0.56503	-0.010986	-0.004425
52.041	-0.001373	-0.036316	-0.15671	0.008392	-0.059662	0.081635	-0.1004	-0.013885	0.03006	-0.016479	0.002441	0.020294	0.006104	-0.089569	0.003204	-0.008698	0.014648	-0.10895	-0.6694	0.036621	0.046387	0.076294	0.031281	-0.036774	0.25253	-0.012817	0.19806	-0.028076	0.16556	0.30563	-0.009155	-0.011292
52.042	-0.005035	-0.053558	-0.12161	0.004883	0.00946	0.069733	-0.097961	-0.004272	0.018616	-0.014191	0.006409	0.009308	0.003967	-0.06424	-0.002136	-0.006104	0.011444	-0.080719	0.019836	-0.028076	-0.071564	0.10407	-0.050812	-0.04364	0.28458	-0.020142	0.3624	-0.027313	0.16525	0.25696	-0.007019	-0.005493
52.043	0.001984	-0.014648	-0.02243	0.00946	0.012207	0.053101	-0.10468	-0.010223	0.001068	-0.040283	0.007629	0.009613	0.019226	-0.066071	-0.004578	0.001068	0.007477	-0.054169	0.53268	-0.046082	-0.007324	0.040283	0.06485	0.027924	0.34531	-0.024261	0.4686	-0.032349	-0.011292	0.25467	-0.001526	-0.007629
52.044	0.000153	-0.035248	0.033112	-0.008698	-0.019836	0.037384	-0.096436	-0.010376	0.001678	-0.02121	0.005188	0.008392	0.013428	-0.075226	-0.006561	-0.003204	0.002747	-0.073547	0.28641	-0.065155	0.019684	0.072632	0.073547	0.059052	0.27634	-0.023651	0.73776	-0.034637	-0.17822	0.39993	-0.007629	-0.017395
52.045	-0.000763	-0.026855	-0.009766	0.010376	-0.020447	0.060577	-0.10803	-0.009613	0.015564	-0.027771	0.011292	0.006714	-0.00061	-0.062714	-0.002594	0.000916	-0.020294	-0.10468	0.027313	-0.033417	0.025177	0.10269	-0.090485	0.14526	-0.016785	-0.020599	0.93445	-0.041809	-0.22232	0.27634	-0.005951	-0.012207
52.046	0.014648	-0.029449	-0.030365	0.003815	0.009613	0.062714	-0.121	-0.022125	0.028839	-0.047913	0.021057	0.011749	-0.006714	-0.076599	-0.004425	0.007019	-0.01358	-0.095673	-0.17425	0.006256	0.008392	0.089722	-0.20737	0.22247	-0.63049	-0.015259	0.6192	-0.027466	-0.17044	0.13275	-0.005493	-0.011292
52.047	0.012665	-0.034485	0.037231	-0.000305	0.064392	0.048676	-0.11963	-0.011444	0.022278	-0.040741	0.013275	0.016632	-0.011749	-0.061646	-0.000916	-0.000458	0.007172	-0.061035	-0.10147	-0.027008	-0.005798	0.063629	0.006866	0.25162	-0.36362	-0.013733	0.53177	0.045624	-0.14511	-0.10376	-0.00473	-0.012207
